<svg t="1625815319511" class="icon" viewBox="0 0 1024 1024" version="1.1" xmlns="http://www.w3.org/2000/svg" p-id="13982" width="20" height="20"><path d="M427.136 115.2L334.464 290.56l-195.456 33.92a96 96 0 0 0-50.496 25.728l-6.656 7.232a96 96 0 0 0 4.736 128.512l138.176 142.272-28.16 196.416a96 96 0 0 0 8.832 55.936l4.48 8.128a96 96 0 0 0 124.032 35.712L512 836.864l178.048 87.552a96 96 0 0 0 55.936 8.896l9.088-1.792a96 96 0 0 0 72.32-106.88l-28.224-196.416 138.24-142.272a96 96 0 0 0 25.728-50.496l1.152-9.152a96 96 0 0 0-79.36-101.76l-195.456-33.92L596.864 115.2a96 96 0 0 0-169.728 0z m99.84 16.512a32 32 0 0 1 13.312 13.376l107.328 203.2 226.432 39.296a32 32 0 0 1 17.472 53.76l-160.128 164.864 32.64 227.52a32 32 0 0 1-45.76 33.28L512 765.632l-206.272 101.376a32 32 0 0 1-45.76-33.28l32.64-227.52L132.48 441.408a32 32 0 0 1 17.472-53.824l226.432-39.296 107.328-203.2a32 32 0 0 1 37.888-15.616l5.312 2.24z" p-id="13983" fill="#5F6D84"></path></svg>