<?xml version="1.0" encoding="UTF-8"?>
<svg width="16px" height="16px" viewBox="0 0 16 16" version="1.1" xmlns="http://www.w3.org/2000/svg" xmlns:xlink="http://www.w3.org/1999/xlink">
    <title>1.通用/2.Icon图标/Fill/info-Circle-Fill</title>
    <g id="页面-1" stroke="none" stroke-width="1" fill="none" fill-rule="evenodd">
        <g id="存储空间管理--" transform="translate(-280.000000, -124.000000)">
            <rect fill="#FFFFFF" x="0" y="0" width="1440" height="900"></rect>
            <g id="Feedback/Alert/Light/Large-Info" transform="translate(264.000000, 112.000000)">
                <rect id="bg" fill="#E0E9FF" x="0" y="0" width="1152" height="66" rx="4"></rect>
                <g id="编组" transform="translate(16.000000, 9.000000)">
                    <text id="Text" font-family="PingFangSC-Semibold, PingFang SC" font-size="14" font-weight="500" line-spacing="22" fill="#2E405E">
                        <tspan x="24" y="15">说明</tspan>
                    </text>
                    <g transform="translate(0.000000, 3.000000)" id="input-/status/error">
                        <rect id="矩形" fill="#000000" fill-rule="nonzero" opacity="0" x="0" y="0" width="16" height="16"></rect>
                        <path d="M8,1 C11.8663333,1 15,4.13366667 15,8 C15,11.8663333 11.8663333,15 8,15 C4.13366667,15 1,11.8663333 1,8 C1,4.13366667 4.13366667,1 8,1 Z M8,6.44444444 L7.89383105,6.45156544 C7.5123098,6.50321808 7.22222222,6.82958857 7.22222222,7.22450059 L7.22222222,7.22450059 L7.22222222,11.1088327 C7.22222222,11.5316637 7.57044519,11.8888889 8,11.8888889 L8,11.8888889 L8.10616895,11.8817679 C8.4876902,11.8301153 8.77777778,11.5037448 8.77777778,11.1088327 L8.77777778,11.1088327 L8.77777778,7.22450059 C8.77777778,6.80166965 8.42955481,6.44444444 8,6.44444444 L8,6.44444444 Z M8,4.11111111 C7.57044519,4.11111111 7.22222222,4.45933408 7.22222222,4.88888889 C7.22222222,5.31844369 7.57044519,5.66666667 8,5.66666667 C8.42955481,5.66666667 8.77777778,5.31844369 8.77777778,4.88888889 C8.77777778,4.45933408 8.42955481,4.11111111 8,4.11111111 Z" id="Combined-Shape" fill="#1A5EFF"></path>
                    </g>
                </g>
                <text id="Text备份" font-family="PingFangSC-Regular, PingFang SC" font-size="14" font-weight="normal" line-spacing="22" fill="#2E405E">
                    <tspan x="40" y="50">文件分发作业，以及定时作业任务需要文件在服务器上存储中转，会占用服务器磁盘资源</tspan>
                </text>
            </g>
            <g id="Feedback/Alert/Light/Large-Info" transform="translate(264.000000, 112.000000)">
                <rect id="bg" fill="#E0E9FF" x="0" y="0" width="1152" height="66" rx="4"></rect>
                <g id="编组" transform="translate(16.000000, 9.000000)">
                    <g transform="translate(0.000000, 3.000000)" id="input-/status/error">
                        <rect id="矩形" fill="#000000" fill-rule="nonzero" opacity="0" x="0" y="0" width="16" height="16"></rect>
                        <path d="M8,1 C11.8663333,1 15,4.13366667 15,8 C15,11.8663333 11.8663333,15 8,15 C4.13366667,15 1,11.8663333 1,8 C1,4.13366667 4.13366667,1 8,1 Z M8,6.44444444 L7.89383105,6.45156544 C7.5123098,6.50321808 7.22222222,6.82958857 7.22222222,7.22450059 L7.22222222,7.22450059 L7.22222222,11.1088327 C7.22222222,11.5316637 7.57044519,11.8888889 8,11.8888889 L8,11.8888889 L8.10616895,11.8817679 C8.4876902,11.8301153 8.77777778,11.5037448 8.77777778,11.1088327 L8.77777778,11.1088327 L8.77777778,7.22450059 C8.77777778,6.80166965 8.42955481,6.44444444 8,6.44444444 L8,6.44444444 Z M8,4.11111111 C7.57044519,4.11111111 7.22222222,4.45933408 7.22222222,4.88888889 C7.22222222,5.31844369 7.57044519,5.66666667 8,5.66666667 C8.42955481,5.66666667 8.77777778,5.31844369 8.77777778,4.88888889 C8.77777778,4.45933408 8.42955481,4.11111111 8,4.11111111 Z" id="Combined-Shape" fill="#1A5EFF"></path>
                    </g>
                    <g id="input-/status/error" transform="translate(0.000000, 3.000000)">
                        <rect id="矩形" fill="#000000" fill-rule="nonzero" opacity="0" x="0" y="0" width="16" height="16"></rect>
                        <path d="M8,1 C11.8663333,1 15,4.13366667 15,8 C15,11.8663333 11.8663333,15 8,15 C4.13366667,15 1,11.8663333 1,8 C1,4.13366667 4.13366667,1 8,1 Z M8,6.44444444 L7.89383105,6.45156544 C7.5123098,6.50321808 7.22222222,6.82958857 7.22222222,7.22450059 L7.22222222,7.22450059 L7.22222222,11.1088327 C7.22222222,11.5316637 7.57044519,11.8888889 8,11.8888889 L8,11.8888889 L8.10616895,11.8817679 C8.4876902,11.8301153 8.77777778,11.5037448 8.77777778,11.1088327 L8.77777778,11.1088327 L8.77777778,7.22450059 C8.77777778,6.80166965 8.42955481,6.44444444 8,6.44444444 L8,6.44444444 Z M8,4.11111111 C7.57044519,4.11111111 7.22222222,4.45933408 7.22222222,4.88888889 C7.22222222,5.31844369 7.57044519,5.66666667 8,5.66666667 C8.42955481,5.66666667 8.77777778,5.31844369 8.77777778,4.88888889 C8.77777778,4.45933408 8.42955481,4.11111111 8,4.11111111 Z" id="Combined-Shape" fill="#1A5EFF"></path>
                    </g>
                </g>
            </g>
        </g>
    </g>
</svg>