<?xml version="1.0" standalone="no"?><!DOCTYPE svg PUBLIC "-//W3C//DTD SVG 1.1//EN" "http://www.w3.org/Graphics/SVG/1.1/DTD/svg11.dtd"><svg t="1646272341429" class="icon" viewBox="0 0 1024 1024" version="1.1" xmlns="http://www.w3.org/2000/svg" p-id="19843" xmlns:xlink="http://www.w3.org/1999/xlink" width="32" height="32"><defs><style type="text/css"></style></defs><path d="M512 64c247.4 0 448 200.6 448 448S759.4 960 512 960 64 759.4 64 512 264.6 64 512 64z m-98.56 280.254a48 48 0 0 0-10.24 29.634v271.357c0 26.51 21.49 48 48 48a48 48 0 0 0 26.085-7.706l189.47-122.658c22.254-14.407 28.615-44.125 14.21-66.379a48 48 0 0 0-10.66-11.675l-189.47-148.699c-20.855-16.366-51.028-12.728-67.395 8.126z" p-id="19844" fill="#5C89F7"></path></svg>