<svg t="1639635779834" class="icon" viewBox="0 0 1024 1024" version="1.1" xmlns="http://www.w3.org/2000/svg" p-id="16560" width="16" height="16"><path d="M512 960A448 448 0 1 1 512 64a448 448 0 0 1 0 896z m0-64A384 384 0 1 0 512 128a384 384 0 0 0 0 768z" p-id="16561"></path><path d="M473.344 521.344A31.872 31.872 0 0 1 496 512 80 80 0 1 0 416 432a32 32 0 1 1-64 0 144 144 0 1 1 176 140.416V640a32 32 0 1 1-64 0V544c0-8.832 3.584-16.832 9.344-22.656z m22.656 256.256a35.968 35.968 0 1 1 0-72 35.968 35.968 0 0 1 0 72z" p-id="16562"></path></svg>