<?xml version="1.0" standalone="no"?><!DOCTYPE svg PUBLIC "-//W3C//DTD SVG 1.1//EN" "http://www.w3.org/Graphics/SVG/1.1/DTD/svg11.dtd"><svg t="1646272215197" class="icon" viewBox="0 0 1024 1024" version="1.1" xmlns="http://www.w3.org/2000/svg" p-id="19487" xmlns:xlink="http://www.w3.org/1999/xlink" width="32" height="32"><defs><style type="text/css"></style></defs><path d="M512 64c247.4 0 448 200.6 448 448S759.4 960 512 960 64 759.4 64 512 264.6 64 512 64z m270.054 362.138c-5.664-16.74-23.827-25.72-40.568-20.057-16.741 5.664-25.72 23.827-20.057 40.568 7.825 23.127 11.872 47.525 11.872 72.494 0 101.943-67.919 190-163.25 215.193-17.087 4.516-27.278 22.028-22.763 39.114 4.516 17.087 22.028 27.277 39.114 22.762 123.397-32.61 210.899-146.056 210.899-277.069 0-31.971-5.196-63.296-15.247-93.005z m-506.092-5.35c-15.124-1.208-29.415 8.519-33.442 23.703-6.406 24.151-9.685 49.197-9.685 74.64 0 128.889 84.693 240.964 205.329 275.55 16.989 4.87 34.71-4.953 39.58-21.942 4.87-16.989-4.953-34.71-21.942-39.58-93.222-26.726-158.967-113.727-158.967-214.028 0-19.892 2.557-39.423 7.546-58.233 4.53-17.083-5.645-34.603-22.727-39.134z m239.087-187.964c-70.872 0-137.727 26.66-189.23 73.9-13.025 11.947-13.899 32.19-1.953 45.214 11.946 13.024 32.189 13.898 45.213 1.951 39.836-36.538 91.311-57.065 145.97-57.065 51.317 0 99.825 18.051 138.609 50.598 13.537 11.36 33.722 9.596 45.082-3.942 11.361-13.538 9.596-33.722-3.942-45.083-50.188-42.117-113.219-65.573-179.749-65.573z" p-id="19488" fill="#B66E26"></path></svg>