<svg viewBox="0 0 21 20" version="1.1" xmlns="http://www.w3.org/2000/svg" xmlns:xlink="http://www.w3.org/1999/xlink" height="18" width="20" paddingTop='2'>
    <g stroke-width="1" fill-rule="evenodd">
        <rect stroke="none" transform="translate(19.767767, 17.767767) rotate(-45.000000) translate(-19.767767, -17.767767) "
              x="19.267767" y="15.767767" width="1" height="4" rx="0.5"></rect>
        <path d="M3.35355339,4.35355339 C3.54881554,4.15829124 3.86539803,4.15829124 4.06066017,4.35355339 L6.18198052,6.47487373 C6.37724266,6.67013588 6.37724266,6.98671837 6.18198052,7.18198052 C5.98671837,7.37724266 5.67013588,7.37724266 5.47487373,7.18198052 L3.35355339,5.06066017 C3.15829124,4.86539803 3.15829124,4.54881554 3.35355339,4.35355339 Z" stroke="none"></path>
        <path d="M17.3535534,7.18198052 C17.1582912,6.98671837 17.1582912,6.67013588 17.3535534,6.47487373 L19.4748737,4.35355339 C19.6701359,4.15829124 19.9867184,4.15829124 20.1819805,4.35355339 C20.3772427,4.54881554 20.3772427,4.86539803 20.1819805,5.06066017 L18.0606602,7.18198052 C17.865398,7.37724266 17.5488155,7.37724266 17.3535534,7.18198052 Z" stroke="none"></path>
        <path d="M0.767766953,10.767767 C0.767766953,10.4916246 0.991624578,10.267767 1.26776695,10.267767 L4.26776695,10.267767 C4.54390933,10.267767 4.76776695,10.4916246 4.76776695,10.767767 C4.76776695,11.0439093 4.54390933,11.267767 4.26776695,11.267767 L1.26776695,11.267767 C0.991624578,11.267767 0.767766953,11.0439093 0.767766953,10.767767 Z" stroke="none"></path>
        <path d="M3.35355339,18.1819805 C3.15829124,17.9867184 3.15829124,17.6701359 3.35355339,17.4748737 L5.47487373,15.3535534 C5.67013588,15.1582912 5.98671837,15.1582912 6.18198052,15.3535534 C6.37724266,15.5488155 6.37724266,15.865398 6.18198052,16.0606602 L4.06066017,18.1819805 C3.86539803,18.3772427 3.54881554,18.3772427 3.35355339,18.1819805 Z" stroke="none"></path>
        <path d="M17.6350111,8.68156953 C16.7466179,5.95500543 14.3353092,4 11.5,4 C7.91014913,4 5,7.13400675 5,11 C5,14.3014411 7.12226772,17.0690706 9.9777484,17.8069834" fill="none" stroke="#1f2d3d"></path>
        <rect stroke="none" x="11" y="4" width="1" height="6" rx="0.5"></rect>
        <path d="M14.7217209,4.86997349 C14.9008705,4.44920817 15,3.98618055 15,3.5 C15,1.56700338 13.4329966,0 11.5,0 C9.56700338,0 8,1.56700338 8,3.5 C8,4.01513056 8.11128647,4.50426877 8.3111291,4.94468432" fill="none" stroke="#1f2d3d"></path>
        <circle fill="none" cx="15" cy="14" r="4" stroke="#1f2d3d"></circle>
    </g>
</svg>