<?xml version="1.0" standalone="no"?><!DOCTYPE svg PUBLIC "-//W3C//DTD SVG 1.1//EN" "http://www.w3.org/Graphics/SVG/1.1/DTD/svg11.dtd"><svg t="1646272462224" class="icon" viewBox="0 0 1024 1024" version="1.1" xmlns="http://www.w3.org/2000/svg" p-id="20634" xmlns:xlink="http://www.w3.org/1999/xlink" width="32" height="32"><defs><style type="text/css"></style></defs><path d="M512 64a448 448 0 1 1 0 896A448 448 0 0 1 512 64zM396.8 281.6a38.4 38.4 0 0 0-38.4 38.4v371.2a38.4 38.4 0 0 0 76.8 0V320a38.4 38.4 0 0 0-38.4-38.4z m236.8 0a38.4 38.4 0 0 0-38.4 38.4v371.2a38.4 38.4 0 0 0 76.8 0V320a38.4 38.4 0 0 0-38.4-38.4z" p-id="20635" fill="#B2B5BB"></path></svg>