<?xml version="1.0" standalone="no"?><!DOCTYPE svg PUBLIC "-//W3C//DTD SVG 1.1//EN" "http://www.w3.org/Graphics/SVG/1.1/DTD/svg11.dtd"><svg t="1606284504924" class="icon" viewBox="0 0 1024 1024" version="1.1" xmlns="http://www.w3.org/2000/svg" p-id="15686" xmlns:xlink="http://www.w3.org/1999/xlink" width="16" height="16"><defs><style type="text/css"></style></defs><path d="M452.096 239.68c33.024-62.336 86.848-62.592 120 0l264 498.624c33.024 62.336 2.432 113.344-68.544 113.344H256.64c-70.848 0-101.696-50.752-68.544-113.28z m60.032 432.96l-6.336 0.448a42.688 42.688 0 0 0-36.352 42.24l0.448 6.272a42.688 42.688 0 0 0 42.24 36.352l6.272-0.448a42.688 42.688 0 0 0 36.352-42.24l-0.448-6.272a42.688 42.688 0 0 0-42.24-36.352z m0-341.312l-6.336 0.448a42.688 42.688 0 0 0-36.352 42.24v213.312c0 23.552 19.136 42.624 42.688 42.624l6.272-0.448a42.688 42.688 0 0 0 36.352-42.24V374.016a42.688 42.688 0 0 0-42.624-42.624z" p-id="15687"></path></svg>